<svg version="1.1" id="Layer_1" xmlns="http://www.w3.org/2000/svg" xmlns:xlink="http://www.w3.org/1999/xlink" x="0px" y="0px"
	 width="100%" viewBox="0 0 666 375" enable-background="new 0 0 666 375" xml:space="preserve">
<path fill="#000000" opacity="1.000000" stroke="none" 
	d="
M434.000000,376.000000 
	C289.367920,376.000000 145.235855,376.000000 1.051893,376.000000 
	C1.051893,251.064606 1.051893,126.129196 1.051893,1.096887 
	C222.882111,1.096887 444.764252,1.096887 666.823242,1.096887 
	C666.823242,125.999802 666.823242,250.999878 666.823242,376.000000 
	C589.462463,376.000000 511.981232,376.000000 434.000000,376.000000 
M98.020752,246.019928 
	C98.020752,246.019928 98.076118,246.106827 98.605232,245.984665 
	C98.772377,245.679611 98.939522,245.374557 99.025780,245.025482 
	C99.025780,245.025482 99.069611,245.106476 99.602577,244.981934 
	C99.770241,244.674026 99.937904,244.366104 100.031273,244.031189 
	C100.031273,244.031189 100.057556,244.105743 100.593285,243.981323 
	C100.763847,243.672943 100.934410,243.364563 101.030861,243.030579 
	C101.030861,243.030579 101.057083,243.104477 101.599724,242.976181 
	C101.763000,242.659988 101.926285,242.343781 101.996918,241.998672 
	C101.996918,241.998672 101.967659,242.091202 102.820503,241.988846 
	C104.679398,241.654541 106.538300,241.320251 108.652184,241.116348 
	C108.652184,241.116348 108.883156,240.947006 109.633026,240.998947 
	C111.031342,241.242661 112.429665,241.486389 114.659561,241.914230 
	C123.427979,244.483719 124.380539,243.641678 123.063202,234.511414 
	C122.993774,234.030258 123.046722,233.531418 123.675957,232.786438 
	C128.332748,228.480438 132.949341,224.129547 137.672607,219.897736 
	C138.969635,218.735672 140.493805,217.288467 142.070175,217.062256 
	C154.451050,215.285614 162.021973,203.604538 162.161224,192.988190 
	C162.224762,188.142853 163.276749,183.310471 163.856491,178.456894 
	C163.856491,178.456894 163.875519,178.441025 164.357803,178.183609 
	C164.555084,177.718643 164.752350,177.253677 165.006500,176.086197 
	C161.470581,171.590912 157.327591,170.080109 154.420639,171.960617 
	C152.428650,173.249237 150.179092,174.139694 147.380646,175.071823 
	C146.931412,175.105408 146.482162,175.138992 145.293335,175.035919 
	C142.551895,174.641876 139.810440,174.247833 137.050766,173.086731 
	C136.958084,166.721573 134.546875,161.991257 127.336281,159.825333 
	C119.592247,156.485901 111.848213,153.146469 104.030853,149.240952 
	C103.655838,148.602524 103.280815,147.964111 102.941452,146.416840 
	C96.689674,146.034042 90.440102,145.593704 84.182869,145.352692 
	C83.518349,145.327072 82.808868,146.468887 81.699608,147.690689 
	C80.858398,151.365906 77.669952,151.411362 74.211014,152.288788 
	C68.473595,155.182907 62.736176,158.077026 56.350750,161.072189 
	C55.226162,161.643158 54.101574,162.214142 52.184246,162.905838 
	C50.288589,163.174332 48.055859,164.226593 46.553539,163.580490 
	C38.528107,160.128998 31.425913,161.214371 24.993980,167.000946 
	C24.993980,167.000946 24.943239,166.922256 24.365438,167.105057 
	C23.950285,167.748688 23.535131,168.392303 22.759729,169.675629 
	C19.426224,173.346893 19.799971,177.669800 19.753098,182.281540 
	C19.704668,187.046249 20.753643,190.816345 24.309763,194.697906 
	C24.917562,197.143082 25.525362,199.588272 26.024622,202.713089 
	C26.348341,203.760315 26.672058,204.807556 26.419283,206.195053 
	C28.879612,215.190262 36.144859,217.680817 44.126114,212.645355 
	C47.792660,218.949066 51.075737,225.704971 57.868126,229.257492 
	C62.197514,231.521820 63.858803,234.328201 61.970249,239.718475 
	C63.438782,245.852905 67.849976,242.466599 70.764923,242.011688 
	C77.979240,240.885818 84.512413,240.793045 89.775261,247.062515 
	C90.666733,248.124542 93.204742,247.804367 95.629631,248.027496 
	C96.111435,247.726059 96.593239,247.424622 96.991295,247.048798 
	C96.991295,247.048798 97.086067,247.105255 97.611313,246.985504 
	C97.776459,246.682556 97.941605,246.379608 98.020752,246.019928 
M546.075378,186.062073 
	C546.099182,196.024612 546.122986,205.987152 545.813293,216.581787 
	C544.374573,217.659561 542.503418,218.463150 541.603455,219.882507 
	C540.401062,221.778748 539.845764,224.126617 539.298035,226.350830 
	C539.218567,226.673660 540.745544,227.876205 541.493958,227.844345 
	C549.568848,227.500519 557.636597,226.990814 565.756165,226.523575 
	C566.135254,225.228012 566.961365,223.777557 566.834473,222.415955 
	C566.727783,221.271713 565.240845,219.194519 564.827393,219.302414 
	C559.940674,220.577682 559.898987,217.255554 560.043762,214.247513 
	C560.639038,201.875763 561.236023,189.498123 562.243591,177.156219 
	C562.507690,173.922073 562.992065,172.611450 558.824463,173.465302 
	C552.496582,174.761749 545.996643,175.218719 539.697205,176.016174 
	C538.414551,180.239090 539.125854,183.197983 544.110901,183.743927 
	C544.807739,183.820251 545.420410,184.665848 546.075378,186.062073 
M474.948944,186.811646 
	C474.939575,194.931610 474.884491,203.052032 474.966614,211.171082 
	C474.980011,212.495483 475.599426,213.813766 475.985107,215.947372 
	C476.024231,220.254959 477.003113,223.991882 481.344086,226.111206 
	C488.819519,229.760803 498.946167,227.137314 503.246735,220.102402 
	C503.880890,219.064972 503.453186,217.378403 503.516815,215.992172 
	C502.386169,215.978256 501.252319,215.906036 500.125854,215.968048 
	C499.151337,216.021729 498.153473,216.117447 497.220917,216.385696 
	C493.268097,217.522781 490.108948,217.058517 490.024261,212.113525 
	C489.865601,202.847534 489.978607,193.576904 489.978607,183.999054 
	C492.858826,183.999054 495.164612,184.000000 497.470367,183.998871 
	C504.324615,183.995499 504.439240,183.853989 503.570618,175.981369 
	C499.540314,175.981369 495.442566,175.981369 490.883270,175.981369 
	C491.074005,172.499557 491.239349,169.481201 491.479645,165.094849 
	C488.835846,165.671036 486.003693,165.708206 483.785706,166.894119 
	C479.363556,169.258545 475.102905,172.027344 471.142517,175.101852 
	C469.595276,176.302948 468.740601,178.701874 468.228790,180.722000 
	C468.096344,181.244751 470.457703,182.385300 471.657776,183.263596 
	C472.819092,184.113556 473.960052,184.991272 474.948944,186.811646 
M286.824768,198.438400 
	C286.878967,194.948471 287.106812,191.450592 286.947449,187.970444 
	C286.697052,182.502106 284.201843,177.295853 279.513245,175.363083 
	C266.105652,169.836029 252.961273,172.456879 245.291733,186.178818 
	C241.118500,193.645355 240.160263,201.786606 242.105942,209.983917 
	C243.950974,217.757187 247.894226,223.839142 256.449432,226.384445 
	C265.798004,229.165756 274.101990,227.856796 282.047852,222.584213 
	C287.026306,219.280701 287.216858,217.939392 283.278748,213.096634 
	C264.754608,220.766586 257.293457,215.187653 256.946960,200.009155 
	C265.020538,200.004974 273.094879,200.056168 281.167145,199.951447 
	C282.849152,199.929642 284.523651,199.331192 286.824768,198.438400 
M185.546600,153.167770 
	C175.988068,152.623108 175.988129,152.623108 176.000702,162.690506 
	C176.001953,163.689255 176.071121,164.693649 175.990158,165.685745 
	C175.663895,169.684052 175.291061,173.678543 174.936295,177.664764 
	C186.123886,178.601929 184.850266,177.705139 186.159988,170.306870 
	C187.289597,163.926010 190.592514,162.249161 199.001221,163.610397 
	C199.001221,165.285919 199.001190,167.066864 199.001205,168.847809 
	C199.001343,181.332138 199.000931,193.816452 199.001831,206.300781 
	C199.002563,216.322968 198.084167,217.472412 188.182205,219.458328 
	C187.728302,221.654221 187.246323,223.985931 186.623932,226.996902 
	C189.325943,226.996902 191.281235,226.998505 193.236526,226.996643 
	C201.770279,226.988510 210.310211,226.775909 218.835876,227.034164 
	C225.805969,227.245270 226.427597,226.809616 225.608139,219.260620 
	C224.215790,219.177109 222.759552,219.046402 221.300980,219.009888 
	C215.382187,218.861603 214.048615,217.541443 214.003433,211.627197 
	C213.974197,207.798904 213.918335,203.968246 214.012177,200.142044 
	C214.312073,187.915802 214.676254,175.691132 215.012695,163.571030 
	C223.017700,162.442245 225.689102,164.225327 227.703583,171.563400 
	C229.642685,178.626892 229.642700,178.626892 238.286667,177.387177 
	C237.836594,169.281372 237.383163,161.115387 236.901642,152.443268 
	C232.871597,152.957550 229.367523,153.404694 225.359894,153.197815 
	C212.310638,153.192673 199.261398,153.187515 185.546600,153.167770 
M358.031769,165.127487 
	C358.037994,181.014618 358.044220,196.901749 357.387299,213.133347 
	C355.808807,214.999344 353.979034,216.711517 352.717804,218.771744 
	C351.262817,221.148438 350.309448,223.832214 349.138245,226.382645 
	C350.959625,226.591675 352.776764,226.864868 354.603973,226.986313 
	C355.744141,227.062119 356.899567,226.908920 358.967560,227.010971 
	C365.966919,227.013443 372.967224,226.953033 379.965118,227.055481 
	C382.156677,227.087540 383.631927,226.848297 383.150848,223.368515 
	C383.476837,222.055115 383.802795,220.741714 384.183075,219.209534 
	C382.937866,219.108963 382.287109,219.022339 381.634888,219.008896 
	C373.413940,218.839310 373.008392,218.410889 372.999237,209.820129 
	C372.998169,208.820419 373.075531,207.813812 372.985870,206.822205 
	C372.589600,202.439423 374.304871,200.553360 378.922394,200.942261 
	C388.653442,201.761780 396.799957,198.543762 403.434631,191.144699 
	C414.824585,178.442474 410.403107,159.723602 394.280457,154.775574 
	C388.004181,152.849411 382.046234,154.939529 375.580383,153.126801 
	C371.816345,153.072571 368.047668,152.876984 364.289520,153.000809 
	C359.842560,153.147308 355.404724,153.569412 350.238007,154.316467 
	C350.238007,156.766693 350.238007,159.216919 350.238007,160.525787 
	C353.234497,161.945724 355.653778,163.092148 358.031769,165.127487 
M602.624207,223.168015 
	C604.202942,222.119308 605.781616,221.070618 607.476868,219.944550 
	C608.576233,226.078323 614.747559,229.872757 620.064209,227.266479 
	C623.243286,225.708069 625.769775,222.695663 628.342651,220.092789 
	C629.187988,219.237549 629.257751,217.615677 629.682129,216.344391 
	C628.202454,216.016342 626.527222,215.076263 625.279724,215.474854 
	C621.523010,216.675095 619.852173,215.649811 619.997803,211.705338 
	C620.658142,193.826019 621.292358,175.945694 621.988464,158.067764 
	C622.178833,153.178406 622.551697,148.296173 622.878540,142.774216 
	C616.456116,143.611176 610.506104,144.504089 604.528015,145.128601 
	C599.708557,145.632080 597.877686,147.892059 599.749329,152.124512 
	C602.077026,153.358658 605.414795,154.780121 605.646118,156.597107 
	C606.366577,162.255020 605.910217,168.062790 605.910217,173.997375 
	C602.857178,173.997375 600.523987,174.108658 598.204468,173.977951 
	C588.564880,173.434784 578.407227,178.619873 575.129272,187.018341 
	C571.359253,196.677475 570.512207,206.738998 574.822876,216.653564 
	C579.435242,227.262009 590.394226,230.066971 602.624207,223.168015 
M464.025269,191.773010 
	C461.691498,181.968262 456.017029,175.129501 445.859344,173.430771 
	C435.998810,171.781693 426.811829,173.460175 419.796082,181.649216 
	C413.989716,188.426620 412.093872,196.343384 413.062927,204.934418 
	C414.069946,213.861923 417.295471,221.659958 426.213043,225.661453 
	C435.219940,229.703018 444.454803,229.236710 452.320831,223.863861 
	C463.110321,216.494186 466.544342,205.455673 464.025269,191.773010 
M302.091003,187.645615 
	C303.990845,186.653732 305.810577,185.440948 307.807465,184.716690 
	C311.763367,183.281937 315.965393,183.134811 318.792908,186.570480 
	C320.504730,188.650513 321.286896,191.773438 321.602264,194.529037 
	C321.680725,195.214722 318.418488,196.601852 316.540894,197.126862 
	C312.442932,198.272751 308.273010,199.206360 304.087341,199.983765 
	C296.184631,201.451553 294.040100,203.930191 293.995667,211.852402 
	C293.962158,217.823517 295.369415,223.231659 301.382965,225.632858 
	C307.545135,228.093460 313.689209,228.451202 318.347351,222.206940 
	C319.191040,221.075928 320.475983,220.274063 321.634827,219.251770 
	C324.840149,226.545105 329.964447,229.486664 335.344818,227.361877 
	C340.821381,225.199097 344.658447,218.774811 342.822662,214.314178 
	C342.269470,214.527100 341.698181,214.747482 341.126465,214.966919 
	C335.415588,217.158890 333.785919,216.205292 334.061554,210.132507 
	C334.315094,204.545776 335.060974,198.973373 335.767120,193.417191 
	C336.696777,186.102432 335.479065,178.195953 325.795746,174.301666 
	C317.414551,170.931015 310.039673,173.861588 302.721832,177.649445 
	C296.059021,181.098236 295.786621,181.725021 298.634949,188.816055 
	C299.559814,188.569046 300.504120,188.316849 302.091003,187.645615 
M525.338501,210.912689 
	C523.904053,210.610703 522.479492,210.117966 521.033264,210.042877 
	C516.866760,209.826523 513.293945,212.668472 512.999756,216.255341 
	C512.307739,224.692413 513.533325,227.215622 519.187317,227.824997 
	C523.655029,228.306519 527.546936,226.759201 529.229126,222.295380 
	C530.853271,217.985779 530.566162,213.816986 525.338501,210.912689 
M560.148193,150.376328 
	C556.759583,145.340744 552.747009,144.574753 547.095032,147.884460 
	C544.288391,149.528015 543.214417,156.443878 545.149292,160.413895 
	C546.295593,162.765869 553.594299,164.229156 556.674805,162.724594 
	C560.759521,160.729538 562.466797,155.646179 560.148193,150.376328 
z"/>
<path fill="#B45C2B" opacity="1.000000" stroke="none" 
	d="
M602.326782,223.405182 
	C590.394226,230.066971 579.435242,227.262009 574.822876,216.653564 
	C570.512207,206.738998 571.359253,196.677475 575.129272,187.018341 
	C578.407227,178.619873 588.564880,173.434784 598.204468,173.977951 
	C600.523987,174.108658 602.857178,173.997375 605.910217,173.997375 
	C605.910217,168.062790 606.366577,162.255020 605.646118,156.597107 
	C605.414795,154.780121 602.077026,153.358658 599.749329,152.124512 
	C597.877686,147.892059 599.708557,145.632080 604.528015,145.128601 
	C610.506104,144.504089 616.456116,143.611176 622.878540,142.774216 
	C622.551697,148.296173 622.178833,153.178406 621.988464,158.067764 
	C621.292358,175.945694 620.658142,193.826019 619.997803,211.705338 
	C619.852173,215.649811 621.523010,216.675095 625.279724,215.474854 
	C626.527222,215.076263 628.202454,216.016342 629.682129,216.344391 
	C629.257751,217.615677 629.187988,219.237549 628.342651,220.092789 
	C625.769775,222.695663 623.243286,225.708069 620.064209,227.266479 
	C614.747559,229.872757 608.576233,226.078323 607.476868,219.944550 
	C605.781616,221.070618 604.202942,222.119308 602.326782,223.405182 
M606.651978,212.284348 
	C606.460205,202.911957 606.268372,193.539566 605.227844,184.059509 
	C604.565491,184.019562 603.880615,184.075180 603.244141,183.925308 
	C593.752319,181.690353 589.901489,183.738602 588.037354,193.096802 
	C587.237000,197.114731 587.496094,201.507492 588.098328,205.608902 
	C589.625427,216.010681 595.836853,219.969086 606.651978,212.284348 
z"/>
<path fill="#ECBA6F" opacity="1.000000" stroke="none" 
	d="
M358.048126,226.858490 
	C356.899567,226.908920 355.744141,227.062119 354.603973,226.986313 
	C352.776764,226.864868 350.959625,226.591675 349.138245,226.382629 
	C350.309448,223.832214 351.262817,221.148438 352.717804,218.771744 
	C353.979034,216.711517 355.808807,214.999344 357.948975,212.652451 
	C358.597809,196.626450 358.690643,181.081345 358.742493,165.536133 
	C358.743927,165.104370 358.306091,164.671127 358.073090,164.238586 
	C355.653778,163.092148 353.234497,161.945724 350.238007,160.525787 
	C350.238007,159.216919 350.238007,156.766693 351.067627,154.133789 
	C359.939941,153.921783 367.982666,153.892441 376.025391,153.863098 
	C382.046234,154.939529 388.004181,152.849411 394.280457,154.775574 
	C410.403107,159.723602 414.824585,178.442474 403.434631,191.144699 
	C396.799957,198.543762 388.653442,201.761780 378.922394,200.942261 
	C374.304871,200.553360 372.589600,202.439423 372.985870,206.822205 
	C373.075531,207.813812 372.998169,208.820419 372.999237,209.820129 
	C373.008392,218.410889 373.413940,218.839310 381.634888,219.008896 
	C382.287109,219.022339 382.937866,219.108963 384.183075,219.209534 
	C383.802795,220.741714 383.476837,222.055115 382.724243,224.012253 
	C380.455383,225.092484 378.630981,225.790924 376.767639,225.917648 
	C370.535309,226.341476 364.289062,226.560822 358.048126,226.858490 
M393.000916,176.559174 
	C392.779541,166.779755 385.688660,161.601990 374.622864,163.714066 
	C374.622864,172.620621 374.622864,181.643890 374.622864,190.710846 
	C386.983490,192.778625 392.758301,188.669525 393.000916,176.559174 
z"/>
<path fill="#924420" opacity="1.000000" stroke="none" 
	d="
M225.863464,153.851837 
	C229.367523,153.404694 232.871597,152.957550 236.901642,152.443268 
	C237.383163,161.115387 237.836594,169.281372 238.286667,177.387177 
	C229.642700,178.626892 229.642685,178.626892 227.703583,171.563400 
	C225.689102,164.225327 223.017700,162.442245 215.012695,163.571030 
	C214.676254,175.691132 214.312073,187.915802 214.012177,200.142044 
	C213.918335,203.968246 213.974197,207.798904 214.003433,211.627197 
	C214.048615,217.541443 215.382187,218.861603 221.300980,219.009888 
	C222.759552,219.046402 224.215790,219.177109 225.608139,219.260620 
	C226.427597,226.809616 225.805969,227.245270 218.835876,227.034164 
	C210.310211,226.775909 201.770279,226.988510 193.236526,226.996643 
	C191.281235,226.998505 189.325943,226.996902 186.623932,226.996902 
	C187.246323,223.985931 187.728302,221.654221 188.182205,219.458328 
	C198.084167,217.472412 199.002563,216.322968 199.001831,206.300781 
	C199.000931,193.816452 199.001343,181.332138 199.001205,168.847809 
	C199.001190,167.066864 199.001221,165.285919 199.001221,163.610397 
	C190.592514,162.249161 187.289597,163.926010 186.159988,170.306870 
	C184.850266,177.705139 186.123886,178.601929 174.936295,177.664764 
	C175.291061,173.678543 175.663895,169.684052 175.990158,165.685745 
	C176.071121,164.693649 176.001953,163.689255 176.000702,162.690506 
	C175.988129,152.623108 175.988068,152.623108 186.204285,153.404022 
	C199.862473,153.710800 212.862976,153.781311 225.863464,153.851837 
z"/>
<path fill="#ECBA6F" opacity="1.000000" stroke="none" 
	d="
M464.026611,192.203125 
	C466.544342,205.455673 463.110321,216.494186 452.320831,223.863861 
	C444.454803,229.236710 435.219940,229.703018 426.213043,225.661453 
	C417.295471,221.659958 414.069946,213.861923 413.062927,204.934418 
	C412.093872,196.343384 413.989716,188.426620 419.796082,181.649216 
	C426.811829,173.460175 435.998810,171.781693 445.859344,173.430771 
	C456.017029,175.129501 461.691498,181.968262 464.026611,192.203125 
M429.894135,208.455948 
	C430.674133,214.588638 433.694427,218.961884 437.644836,218.922379 
	C442.346252,218.875351 445.984406,216.977081 447.539490,212.002319 
	C450.090179,203.842606 449.176178,195.916412 445.973022,188.243408 
	C444.489288,184.689240 441.460144,182.640594 437.344421,183.018234 
	C433.276154,183.391525 430.487732,185.706314 430.092102,189.683472 
	C429.494629,195.689209 429.537476,201.758636 429.894135,208.455948 
z"/>
<path fill="#944622" opacity="1.000000" stroke="none" 
	d="
M301.769714,187.855133 
	C300.504120,188.316849 299.559814,188.569046 298.634949,188.816055 
	C295.786621,181.725021 296.059021,181.098236 302.721832,177.649445 
	C310.039673,173.861588 317.414551,170.931015 325.795746,174.301666 
	C335.479065,178.195953 336.696777,186.102432 335.767120,193.417191 
	C335.060974,198.973373 334.315094,204.545776 334.061554,210.132507 
	C333.785919,216.205292 335.415588,217.158890 341.126465,214.966919 
	C341.698181,214.747482 342.269470,214.527100 342.822662,214.314178 
	C344.658447,218.774811 340.821381,225.199097 335.344818,227.361877 
	C329.964447,229.486664 324.840149,226.545105 321.634827,219.251770 
	C320.475983,220.274063 319.191040,221.075928 318.347351,222.206940 
	C313.689209,228.451202 307.545135,228.093460 301.382965,225.632858 
	C295.369415,223.231659 293.962158,217.823517 293.995667,211.852402 
	C294.040100,203.930191 296.184631,201.451553 304.087341,199.983765 
	C308.273010,199.206360 312.442932,198.272751 316.540894,197.126862 
	C318.418488,196.601852 321.680725,195.214722 321.602264,194.529037 
	C321.286896,191.773438 320.504730,188.650513 318.792908,186.570480 
	C315.965393,183.134811 311.763367,183.281937 307.807465,184.716690 
	C305.810577,185.440948 303.990845,186.653732 301.769714,187.855133 
M309.928406,215.254593 
	C313.340576,214.741074 317.907318,215.367004 319.847626,213.400955 
	C321.881134,211.340454 321.394073,206.792389 322.100342,202.815155 
	C318.301971,203.778152 315.597229,204.384399 312.939911,205.154510 
	C307.721130,206.666992 306.670929,209.558182 309.928406,215.254593 
z"/>
<path fill="#944622" opacity="1.000000" stroke="none" 
	d="
M256.014130,200.068634 
	C257.293457,215.187653 264.754608,220.766586 283.278748,213.096634 
	C287.216858,217.939392 287.026306,219.280701 282.047852,222.584213 
	C274.101990,227.856796 265.798004,229.165756 256.449432,226.384445 
	C247.894226,223.839142 243.950974,217.757187 242.105942,209.983917 
	C240.160263,201.786606 241.118500,193.645355 245.291733,186.178818 
	C252.961273,172.456879 266.105652,169.836029 279.513245,175.363083 
	C284.201843,177.295853 286.697052,182.502106 286.947449,187.970444 
	C287.106812,191.450592 286.878967,194.948471 286.030396,198.694153 
	C277.514191,198.968277 269.791168,198.915680 262.071472,199.053009 
	C260.046967,199.089020 258.032959,199.714081 256.014130,200.068634 
M272.431610,191.682556 
	C273.220886,186.503677 270.496643,182.011047 266.239685,182.092850 
	C260.858948,182.196259 255.929916,186.556183 256.847382,193.626465 
	C261.806763,193.094406 266.764832,192.562485 272.431610,191.682556 
z"/>
<path fill="#ECBA6F" opacity="1.000000" stroke="none" 
	d="
M475.109924,185.856781 
	C473.960052,184.991272 472.819092,184.113556 471.657776,183.263596 
	C470.457703,182.385300 468.096344,181.244751 468.228790,180.722000 
	C468.740601,178.701874 469.595276,176.302948 471.142517,175.101852 
	C475.102905,172.027344 479.363556,169.258545 483.785706,166.894119 
	C486.003693,165.708206 488.835846,165.671036 491.479645,165.094849 
	C491.239349,169.481201 491.074005,172.499557 490.883270,175.981369 
	C495.442566,175.981369 499.540314,175.981369 503.570618,175.981369 
	C504.439240,183.853989 504.324615,183.995499 497.470367,183.998871 
	C495.164612,184.000000 492.858826,183.999054 489.978607,183.999054 
	C489.978607,193.576904 489.865601,202.847534 490.024261,212.113525 
	C490.108948,217.058517 493.268097,217.522781 497.220917,216.385696 
	C498.153473,216.117447 499.151337,216.021729 500.125854,215.968048 
	C501.252319,215.906036 502.386169,215.978256 503.516815,215.992172 
	C503.453186,217.378403 503.880890,219.064972 503.246735,220.102402 
	C498.946167,227.137314 488.819519,229.760803 481.344086,226.111206 
	C477.003113,223.991882 476.024231,220.254959 476.029602,215.068222 
	C476.093475,207.772690 476.221039,201.354004 476.084717,194.940933 
	C476.020233,191.907349 475.450684,188.884506 475.109924,185.856781 
z"/>
<path fill="#B45C2B" opacity="1.000000" stroke="none" 
	d="
M546.072021,185.155334 
	C545.420410,184.665848 544.807739,183.820251 544.110901,183.743927 
	C539.125854,183.197983 538.414551,180.239090 539.697205,176.016174 
	C545.996643,175.218719 552.496582,174.761749 558.824463,173.465302 
	C562.992065,172.611450 562.507690,173.922073 562.243591,177.156219 
	C561.236023,189.498123 560.639038,201.875763 560.043762,214.247513 
	C559.898987,217.255554 559.940674,220.577682 564.827393,219.302414 
	C565.240845,219.194519 566.727783,221.271713 566.834473,222.415955 
	C566.961365,223.777557 566.135254,225.228012 565.756165,226.523575 
	C557.636597,226.990814 549.568848,227.500519 541.493958,227.844345 
	C540.745544,227.876205 539.218567,226.673660 539.298035,226.350830 
	C539.845764,224.126617 540.401062,221.778748 541.603455,219.882507 
	C542.503418,218.463150 544.374573,217.659561 546.250000,215.949921 
	C546.794434,209.509766 547.048462,203.699249 546.961060,197.893875 
	C546.897156,193.644196 546.384583,189.401276 546.072021,185.155334 
z"/>
<path fill="#713C1D" opacity="1.000000" stroke="none" 
	d="
M127.965195,160.201630 
	C134.546875,161.991257 136.958084,166.721573 136.831787,173.763779 
	C136.090897,176.290466 135.568985,178.140106 134.732483,180.133057 
	C129.383926,182.479309 127.019859,181.231628 124.357689,175.037384 
	C122.532707,175.037384 120.747856,175.037384 118.804092,174.762939 
	C117.438507,173.704971 116.231842,172.921463 115.437500,172.074203 
	C119.876076,171.289825 123.902313,170.569199 127.928558,169.848572 
	C127.888153,169.555649 127.847740,169.262726 127.807335,168.969803 
	C124.863358,168.969803 121.919388,168.969803 118.966782,168.597534 
	C116.730553,164.915955 114.502953,161.606659 111.931847,157.787033 
	C110.328049,158.862900 108.649216,159.989090 106.550858,161.122620 
	C104.733139,161.096497 103.334938,161.063019 101.993881,160.678436 
	C102.027351,158.444061 102.003700,156.560806 102.429260,154.708527 
	C110.179550,154.195724 116.465302,157.226074 122.840591,160.168060 
	C124.253151,160.819901 126.241806,160.223343 127.965195,160.201630 
z"/>
<path fill="#713C1D" opacity="1.000000" stroke="none" 
	d="
M525.746765,210.936768 
	C530.566162,213.816986 530.853271,217.985779 529.229126,222.295380 
	C527.546936,226.759201 523.655029,228.306519 519.187317,227.824997 
	C513.533325,227.215622 512.307739,224.692413 512.999756,216.255341 
	C513.293945,212.668472 516.866760,209.826523 521.033264,210.042877 
	C522.479492,210.117966 523.904053,210.610703 525.746765,210.936768 
z"/>
<path fill="#985A3A" opacity="1.000000" stroke="none" 
	d="
M24.013247,194.101715 
	C20.753643,190.816345 19.704668,187.046249 19.753098,182.281540 
	C19.799971,177.669800 19.426224,173.346893 23.251667,169.290314 
	C24.143484,168.244095 24.543362,167.583176 24.943239,166.922256 
	C24.943239,166.922256 24.993980,167.000946 25.317657,167.028442 
	C28.073235,167.127213 30.591049,170.036179 33.361721,166.872131 
	C36.896004,167.882385 39.992455,168.855942 42.647339,169.874924 
	C38.956726,170.682968 35.242249,170.693542 32.551746,172.358658 
	C26.187109,176.297714 27.390034,182.189835 29.558760,188.090149 
	C28.895754,189.575089 28.529692,190.974426 28.497938,191.095825 
	C26.436729,192.477356 25.224987,193.289536 24.013247,194.101715 
z"/>
<path fill="#713C1D" opacity="1.000000" stroke="none" 
	d="
M56.998749,160.971146 
	C62.736176,158.077026 68.473595,155.182907 74.761978,152.489395 
	C77.983887,155.114624 80.873306,156.102905 84.548737,154.023895 
	C85.751556,153.990402 86.631607,153.978775 87.624245,154.284409 
	C88.523155,155.379288 89.309486,156.156906 90.020714,157.259216 
	C88.967789,158.427017 87.989967,159.270142 86.635422,160.120178 
	C83.841454,160.734238 81.424217,161.341385 78.940239,161.601105 
	C77.208092,158.061752 74.986069,158.461945 73.016182,160.698410 
	C71.417961,162.512924 70.304100,164.754059 68.578995,166.859955 
	C67.115021,166.900421 66.047485,166.886902 64.681656,166.657715 
	C61.443333,165.264297 56.470367,166.830551 56.998749,160.971146 
z"/>
<path fill="#B45C2B" opacity="1.000000" stroke="none" 
	d="
M560.382080,150.683075 
	C562.466797,155.646179 560.759521,160.729538 556.674805,162.724594 
	C553.594299,164.229156 546.295593,162.765869 545.149292,160.413895 
	C543.214417,156.443878 544.288391,149.528015 547.095032,147.884460 
	C552.747009,144.574753 556.759583,145.340744 560.382080,150.683075 
z"/>
<path fill="#9C7555" opacity="1.000000" stroke="none" 
	d="
M163.880432,178.472214 
	C163.276749,183.310471 162.224762,188.142853 162.161224,192.988190 
	C162.021973,203.604538 154.451050,215.285614 142.070175,217.062256 
	C140.493805,217.288467 138.969635,218.735672 137.672607,219.897736 
	C132.949341,224.129547 128.332748,228.480438 123.351364,232.906113 
	C123.026764,233.025787 123.012848,233.012390 122.997604,232.671158 
	C123.001358,231.875076 123.020363,231.420212 123.294998,230.858215 
	C124.065033,230.239166 124.579437,229.727249 125.351593,228.995453 
	C128.100861,225.887070 130.592377,222.998596 133.394196,220.000854 
	C134.533844,218.329529 135.363205,216.767471 136.513687,215.034332 
	C144.418945,212.384888 152.260803,210.298325 156.370758,201.874252 
	C157.097534,198.715286 157.582764,195.853378 158.086670,192.580627 
	C158.425552,190.029739 158.745773,187.889709 159.059723,185.643707 
	C159.053482,185.537750 159.009109,185.330154 159.198517,185.143906 
	C159.558289,184.653214 159.728653,184.348785 159.936646,183.647614 
	C159.988754,182.449478 160.003235,181.648071 160.211563,180.562622 
	C161.563751,179.676468 162.722092,179.074341 163.880432,178.472214 
z"/>
<path fill="#C07839" opacity="1.000000" stroke="none" 
	d="
M163.868469,178.464554 
	C162.722092,179.074341 161.563751,179.676468 159.795685,180.595215 
	C157.290665,181.797546 155.339615,182.582047 153.511292,183.589386 
	C149.290009,185.915131 146.878860,191.645096 140.175430,190.487747 
	C140.512177,188.868637 140.798599,187.491394 141.413330,186.087769 
	C142.527359,185.735931 143.313095,185.410492 144.434082,185.014709 
	C148.749451,182.670624 151.081085,179.842316 148.044678,175.208145 
	C150.179092,174.139694 152.428650,173.249237 154.420639,171.960617 
	C157.327591,170.080109 161.470581,171.590912 164.692169,176.547455 
	C164.210403,177.486145 164.042969,177.963593 163.875519,178.441025 
	C163.875519,178.441025 163.856491,178.456894 163.868469,178.464554 
z"/>
<path fill="#9C7555" opacity="1.000000" stroke="none" 
	d="
M94.982040,248.122787 
	C93.204742,247.804367 90.666733,248.124542 89.775261,247.062515 
	C84.512413,240.793045 77.979240,240.885818 70.764923,242.011688 
	C67.849976,242.466599 63.438782,245.852905 62.368553,239.454422 
	C66.823067,241.690231 71.090637,240.851761 74.268524,237.197403 
	C80.001923,238.170105 85.504639,238.921310 90.993668,239.929749 
	C89.091263,243.514282 91.246735,244.826874 93.843674,244.525208 
	C95.038544,244.386398 95.950409,241.811401 97.199554,240.167267 
	C99.754295,239.381454 102.082169,238.390396 104.451599,238.278412 
	C106.317123,238.190262 108.233871,239.185974 109.859825,239.858261 
	C109.355583,240.326508 109.119370,240.636765 108.883156,240.947006 
	C108.883156,240.947006 108.652184,241.116348 108.103539,240.911438 
	C105.692482,241.168091 103.830070,241.629654 101.967659,242.091202 
	C101.967659,242.091202 101.996918,241.998672 101.708115,241.990692 
	C101.298569,242.356644 101.177834,242.730560 101.057091,243.104477 
	C101.057083,243.104477 101.030861,243.030579 100.726677,242.981995 
	C100.300850,243.324203 100.179207,243.714966 100.057556,244.105743 
	C100.057556,244.105743 100.031273,244.031189 99.718216,243.977921 
	C99.293304,244.318588 99.181458,244.712540 99.069611,245.106476 
	C99.069611,245.106476 99.025780,245.025482 98.708900,244.954468 
	C98.286720,245.291245 98.181419,245.699036 98.076118,246.106827 
	C98.076118,246.106827 98.020752,246.019928 97.695747,245.935669 
	C97.275848,246.269363 97.180962,246.687317 97.086075,247.105255 
	C97.086067,247.105255 96.991295,247.048798 96.751846,246.821167 
	C96.002281,247.103287 95.492157,247.613037 94.982040,248.122787 
z"/>
<path fill="#BB8A58" opacity="1.000000" stroke="none" 
	d="
M74.037849,236.975906 
	C71.090637,240.851761 66.823067,241.690231 62.434704,239.069107 
	C63.858803,234.328201 62.197514,231.521820 57.868126,229.257492 
	C51.075737,225.704971 47.792660,218.949066 44.057373,211.978699 
	C44.673416,210.519241 45.358196,209.726425 46.294540,208.888977 
	C46.712158,208.806641 46.878216,208.768951 47.219597,208.890488 
	C47.259251,209.430771 47.123581,209.811813 46.869091,210.259064 
	C46.615833,210.598862 46.704136,210.814713 47.011421,210.983215 
	C47.007671,210.993622 47.029652,210.991562 47.038399,211.321625 
	C47.644524,212.416412 48.241898,213.181122 49.065781,214.002762 
	C49.292290,214.059708 49.734795,214.209320 49.837708,214.542816 
	C53.349525,219.091888 56.741417,223.321411 60.175087,227.516739 
	C61.709248,229.391190 63.327370,231.196930 65.070061,233.305573 
	C65.824516,233.736450 66.416306,233.895630 67.001724,234.024734 
	C66.995361,233.994675 66.940918,234.023178 67.021057,234.314514 
	C67.915802,234.419266 68.730400,234.232666 69.535217,234.128403 
	C69.525444,234.210739 69.688042,234.243301 69.938042,234.452240 
	C71.127205,235.105469 72.066360,235.549759 73.241402,236.050247 
	C73.477280,236.106445 73.962120,236.117233 73.949013,236.082214 
	C73.935905,236.047195 73.873390,236.088242 73.904579,236.311996 
	C73.935768,236.535751 74.037849,236.975906 74.037849,236.975906 
z"/>
<path fill="#ECBA6F" opacity="1.000000" stroke="none" 
	d="
M46.042976,208.933609 
	C45.358196,209.726425 44.673416,210.519241 43.953476,211.636230 
	C36.144859,217.680817 28.879612,215.190262 27.058372,206.102036 
	C30.501936,207.744797 36.542213,203.579376 35.751522,212.714966 
	C39.119427,209.521683 41.188591,207.559799 42.788578,206.042755 
	C40.463043,204.156433 39.047081,203.007889 37.742012,201.516571 
	C37.581192,199.878967 37.309483,198.584183 37.456882,197.232574 
	C39.922848,196.132217 41.969707,195.088684 43.948730,194.403992 
	C43.931812,196.847488 43.982727,198.932129 43.990540,201.418640 
	C44.645950,204.191544 45.344463,206.562576 46.042976,208.933609 
z"/>
<path fill="#713C1D" opacity="1.000000" stroke="none" 
	d="
M37.037773,197.289383 
	C37.309483,198.584183 37.581192,199.878967 37.422836,201.576355 
	C33.372898,201.997101 29.753031,202.015274 26.133162,202.033447 
	C25.525362,199.588272 24.917562,197.143082 24.161505,194.399811 
	C25.224987,193.289536 26.436729,192.477356 28.497938,191.095825 
	C28.529692,190.974426 28.895754,189.575089 29.640322,188.435822 
	C32.358475,191.560394 34.698124,194.424881 37.037773,197.289383 
z"/>
<path fill="#944622" opacity="1.000000" stroke="none" 
	d="
M144.098831,185.085052 
	C143.313095,185.410492 142.527359,185.735931 141.038757,186.064178 
	C138.201233,186.066711 136.066544,186.066437 134.258575,185.975922 
	C136.390533,184.049698 138.005615,182.198837 135.047073,179.989746 
	C135.568985,178.140106 136.090897,176.290466 136.840912,174.147308 
	C139.810440,174.247833 142.551895,174.641876 145.580444,175.464478 
	C145.277969,178.957047 144.688400,182.021042 144.098831,185.085052 
z"/>
<path fill="#9C7555" opacity="1.000000" stroke="none" 
	d="
M127.650742,160.013489 
	C126.241806,160.223343 124.253151,160.819901 122.840591,160.168060 
	C116.465302,157.226074 110.179550,154.195724 102.296974,154.492676 
	C102.089455,153.152100 102.463432,152.058365 103.101242,150.835754 
	C103.611443,150.406937 103.857803,150.106995 104.104172,149.807053 
	C111.848213,153.146469 119.592247,156.485901 127.650742,160.013489 
z"/>
<path fill="#9C7555" opacity="1.000000" stroke="none" 
	d="
M123.034729,233.033295 
	C123.046722,233.531418 122.993774,234.030258 123.063202,234.511414 
	C124.380539,243.641678 123.427979,244.483719 114.115448,241.573425 
	C113.018539,240.767548 112.465736,240.302475 111.954742,239.460297 
	C114.205841,234.405106 119.804146,235.876892 123.012848,233.012390 
	C123.012848,233.012390 123.026764,233.025787 123.034729,233.033295 
z"/>
<path fill="#C07839" opacity="1.000000" stroke="none" 
	d="
M26.078892,202.373260 
	C29.753031,202.015274 33.372898,201.997101 37.311943,201.919159 
	C39.047081,203.007889 40.463043,204.156433 42.788578,206.042755 
	C41.188591,207.559799 39.119427,209.521683 35.751522,212.714966 
	C36.542213,203.579376 30.501936,207.744797 27.346619,205.931900 
	C26.672058,204.807556 26.348341,203.760315 26.078892,202.373260 
z"/>
<path fill="#985A3A" opacity="1.000000" stroke="none" 
	d="
M56.674751,161.021667 
	C56.470367,166.830551 61.443333,165.264297 64.953323,166.940018 
	C70.016037,167.975830 74.508789,168.513702 79.014374,169.422760 
	C79.044479,170.041321 79.061752,170.288666 78.696861,170.529327 
	C77.303810,170.518631 76.292923,170.514572 74.822372,170.388855 
	C70.302803,169.867249 66.245361,169.439896 62.182316,169.074738 
	C57.804955,168.681335 53.422356,168.346176 49.057480,167.660522 
	C49.662663,166.587555 50.252403,165.839661 50.981831,165.190521 
	C51.407787,165.208862 51.694057,165.128479 52.221169,164.830505 
	C52.633667,164.003647 52.805325,163.394379 52.976982,162.785110 
	C54.101574,162.214142 55.226162,161.643158 56.674751,161.021667 
z"/>
<path fill="#9C7555" opacity="1.000000" stroke="none" 
	d="
M52.580612,162.845474 
	C52.805325,163.394379 52.633667,164.003647 51.936462,164.830566 
	C51.221329,165.062729 51.031738,165.077255 50.842148,165.091766 
	C50.252403,165.839661 49.662663,166.587555 48.717590,167.569504 
	C46.681076,166.758331 45.109634,165.134384 43.295479,164.790359 
	C39.702934,164.109085 35.463974,161.677734 32.923885,166.835449 
	C30.591049,170.036179 28.073235,167.127213 25.285826,166.993774 
	C31.425913,161.214371 38.528107,160.128998 46.553539,163.580490 
	C48.055859,164.226593 50.288589,163.174332 52.580612,162.845474 
z"/>
<path fill="#BB8A58" opacity="1.000000" stroke="none" 
	d="
M104.067513,149.524002 
	C103.857803,150.106995 103.611443,150.406937 102.970551,150.528992 
	C101.510757,150.005478 99.782715,149.067200 99.481125,149.404465 
	C95.823914,153.494324 91.854408,149.921524 87.929169,149.850891 
	C88.518967,148.591614 89.260521,147.547699 90.443474,146.441406 
	C94.891846,146.694580 98.898827,147.010132 102.905800,147.325684 
	C103.280815,147.964111 103.655838,148.602524 104.067513,149.524002 
z"/>
<path fill="#9C7555" opacity="1.000000" stroke="none" 
	d="
M90.002075,146.503799 
	C89.260521,147.547699 88.518967,148.591614 87.725395,150.071106 
	C85.181877,150.378815 83.559441,151.097458 84.225975,154.045792 
	C80.873306,156.102905 77.983887,155.114624 75.102776,152.391266 
	C77.669952,151.411362 80.858398,151.365906 82.312607,147.359711 
	C85.284431,146.853745 87.643257,146.678772 90.002075,146.503799 
z"/>
<path fill="#E9D0C1" opacity="1.000000" stroke="none" 
	d="
M358.052429,164.683044 
	C358.306091,164.671127 358.743927,165.104370 358.742493,165.536133 
	C358.690643,181.081345 358.597809,196.626450 358.280548,212.480225 
	C358.044220,196.901749 358.037994,181.014618 358.052429,164.683044 
z"/>
<path fill="#E9D0C1" opacity="1.000000" stroke="none" 
	d="
M225.611679,153.524811 
	C212.862976,153.781311 199.862473,153.710800 186.537064,153.411331 
	C199.261398,153.187515 212.310638,153.192673 225.611679,153.524811 
z"/>
<path fill="#B45C2B" opacity="1.000000" stroke="none" 
	d="
M144.434082,185.014709 
	C144.688400,182.021042 145.277969,178.957047 145.950226,175.532806 
	C146.482162,175.138992 146.931412,175.105408 147.712662,175.139984 
	C151.081085,179.842316 148.749451,182.670624 144.434082,185.014709 
z"/>
<path fill="#E9D0C1" opacity="1.000000" stroke="none" 
	d="
M546.073730,185.608704 
	C546.384583,189.401276 546.897156,193.644196 546.961060,197.893875 
	C547.048462,203.699249 546.794434,209.509766 546.416748,215.633881 
	C546.122986,205.987152 546.099182,196.024612 546.073730,185.608704 
z"/>
<path fill="#BB8A58" opacity="1.000000" stroke="none" 
	d="
M256.480530,200.038895 
	C258.032959,199.714081 260.046967,199.089020 262.071472,199.053009 
	C269.791168,198.915680 277.514191,198.968277 285.718811,198.974213 
	C284.523651,199.331192 282.849152,199.929642 281.167145,199.951447 
	C273.094879,200.056168 265.020538,200.004974 256.480530,200.038895 
z"/>
<path fill="#E9D0C1" opacity="1.000000" stroke="none" 
	d="
M475.029419,186.334229 
	C475.450684,188.884506 476.020233,191.907349 476.084717,194.940933 
	C476.221039,201.354004 476.093475,207.772690 476.006409,214.661972 
	C475.599426,213.813766 474.980011,212.495483 474.966614,211.171082 
	C474.884491,203.052032 474.939575,194.931610 475.029419,186.334229 
z"/>
<path fill="#E9D0C1" opacity="1.000000" stroke="none" 
	d="
M90.443474,146.441406 
	C87.643257,146.678772 85.284431,146.853745 82.522934,147.048920 
	C82.808868,146.468887 83.518349,145.327072 84.182869,145.352692 
	C90.440102,145.593704 96.689674,146.034042 102.923630,146.871262 
	C98.898827,147.010132 94.891846,146.694580 90.443474,146.441406 
z"/>
<path fill="#E9D0C1" opacity="1.000000" stroke="none" 
	d="
M358.507843,226.934723 
	C364.289062,226.560822 370.535309,226.341476 376.767639,225.917648 
	C378.630981,225.790924 380.455383,225.092484 382.570618,224.398575 
	C383.631927,226.848297 382.156677,227.087540 379.965118,227.055481 
	C372.967224,226.953033 365.966919,227.013443 358.507843,226.934723 
z"/>
<path fill="#E9D0C1" opacity="1.000000" stroke="none" 
	d="
M375.802887,153.494949 
	C367.982666,153.892441 359.939941,153.921783 351.430054,153.911591 
	C355.404724,153.569412 359.842560,153.147308 364.289520,153.000809 
	C368.047668,152.876984 371.816345,153.072571 375.802887,153.494949 
z"/>
<path fill="#E9D0C1" opacity="1.000000" stroke="none" 
	d="
M102.394081,242.040024 
	C103.830070,241.629654 105.692482,241.168091 107.976044,240.846237 
	C106.538300,241.320251 104.679398,241.654541 102.394081,242.040024 
z"/>
<path fill="#E9D0C1" opacity="1.000000" stroke="none" 
	d="
M111.912933,239.837402 
	C112.465736,240.302475 113.018539,240.767548 113.699661,241.481384 
	C112.429665,241.486389 111.031342,241.242661 109.258087,240.972977 
	C109.119370,240.636765 109.355583,240.326508 110.155373,239.903595 
	C111.116951,239.806427 111.514938,239.821915 111.912933,239.837402 
z"/>
<path fill="#9C7555" opacity="1.000000" stroke="none" 
	d="
M24.654339,167.013657 
	C24.543362,167.583176 24.143484,168.244095 23.431793,168.970474 
	C23.535131,168.392303 23.950285,167.748688 24.654339,167.013657 
z"/>
<path fill="#9C7555" opacity="1.000000" stroke="none" 
	d="
M164.116669,178.312317 
	C164.042969,177.963593 164.210403,177.486145 164.663727,176.898712 
	C164.752350,177.253677 164.555084,177.718643 164.116669,178.312317 
z"/>
<path fill="#E9D0C1" opacity="1.000000" stroke="none" 
	d="
M95.305832,248.075134 
	C95.492157,247.613037 96.002281,247.103287 96.793724,246.858368 
	C96.593239,247.424622 96.111435,247.726059 95.305832,248.075134 
z"/>
<path fill="#E9D0C1" opacity="1.000000" stroke="none" 
	d="
M101.328415,243.040329 
	C101.177834,242.730560 101.298569,242.356644 101.754433,242.005157 
	C101.926285,242.343781 101.763000,242.659988 101.328415,243.040329 
z"/>
<path fill="#E9D0C1" opacity="1.000000" stroke="none" 
	d="
M100.325424,244.043533 
	C100.179207,243.714966 100.300850,243.324203 100.763733,242.994812 
	C100.934410,243.364563 100.763847,243.672943 100.325424,244.043533 
z"/>
<path fill="#E9D0C1" opacity="1.000000" stroke="none" 
	d="
M99.336090,245.044205 
	C99.181458,244.712540 99.293304,244.318588 99.755356,243.991425 
	C99.937904,244.366104 99.770241,244.674026 99.336090,245.044205 
z"/>
<path fill="#E9D0C1" opacity="1.000000" stroke="none" 
	d="
M98.340675,246.045746 
	C98.181419,245.699036 98.286720,245.291245 98.749344,244.976471 
	C98.939522,245.374557 98.772377,245.679611 98.340675,246.045746 
z"/>
<path fill="#E9D0C1" opacity="1.000000" stroke="none" 
	d="
M97.348694,247.045380 
	C97.180962,246.687317 97.275848,246.269363 97.738747,245.964050 
	C97.941605,246.379608 97.776459,246.682556 97.348694,247.045380 
z"/>
<path fill="#000000" opacity="1.000000" stroke="none" 
	d="
M606.065063,212.839478 
	C595.836853,219.969086 589.625427,216.010681 588.098328,205.608902 
	C587.496094,201.507492 587.237000,197.114731 588.037354,193.096802 
	C589.901489,183.738602 593.752319,181.690353 603.244141,183.925308 
	C603.880615,184.075180 604.565491,184.019562 605.648926,184.565247 
	C606.068359,194.327148 606.066711,203.583313 606.065063,212.839478 
z"/>
<path fill="#E9D0C1" opacity="1.000000" stroke="none" 
	d="
M606.358521,212.561920 
	C606.066711,203.583313 606.068359,194.327148 606.073303,184.619080 
	C606.268372,193.539566 606.460205,202.911957 606.358521,212.561920 
z"/>
<path fill="#000000" opacity="1.000000" stroke="none" 
	d="
M393.000916,177.000122 
	C392.758301,188.669525 386.983490,192.778625 374.622864,190.710846 
	C374.622864,181.643890 374.622864,172.620621 374.622864,163.714066 
	C385.688660,161.601990 392.779541,166.779755 393.000916,177.000122 
z"/>
<path fill="#000000" opacity="1.000000" stroke="none" 
	d="
M429.601166,208.128479 
	C429.537476,201.758636 429.494629,195.689209 430.092102,189.683472 
	C430.487732,185.706314 433.276154,183.391525 437.344421,183.018234 
	C441.460144,182.640594 444.489288,184.689240 445.973022,188.243408 
	C449.176178,195.916412 450.090179,203.842606 447.539490,212.002319 
	C445.984406,216.977081 442.346252,218.875351 437.644836,218.922379 
	C433.694427,218.961884 430.674133,214.588638 429.601166,208.128479 
z"/>
<path fill="#000000" opacity="1.000000" stroke="none" 
	d="
M309.648499,214.992401 
	C306.670929,209.558182 307.721130,206.666992 312.939911,205.154510 
	C315.597229,204.384399 318.301971,203.778152 322.100342,202.815155 
	C321.394073,206.792389 321.881134,211.340454 319.847626,213.400955 
	C317.907318,215.367004 313.340576,214.741074 309.648499,214.992401 
z"/>
<path fill="#000000" opacity="1.000000" stroke="none" 
	d="
M272.077240,191.856567 
	C266.764832,192.562485 261.806763,193.094406 256.847382,193.626465 
	C255.929916,186.556183 260.858948,182.196259 266.239685,182.092850 
	C270.496643,182.011047 273.220886,186.503677 272.077240,191.856567 
z"/>
<path fill="#823B1A" opacity="1.000000" stroke="none" 
	d="
M134.732483,180.133057 
	C138.005615,182.198837 136.390533,184.049698 133.884338,185.997192 
	C129.734818,188.320969 129.996613,190.643158 133.061310,193.382690 
	C141.212250,200.845947 148.206482,200.798965 156.237000,193.620743 
	C156.680481,193.224319 157.450165,193.192841 158.067993,192.991486 
	C157.582764,195.853378 157.097534,198.715286 156.118896,201.615845 
	C151.398819,202.869537 147.228821,204.404633 142.922028,205.167435 
	C140.698334,205.561310 138.237091,204.539978 135.872589,204.242188 
	C134.573776,204.078613 133.252945,204.089737 131.630310,204.001404 
	C130.902237,203.297073 130.468826,202.623093 130.074615,201.926910 
	C129.720306,201.301193 129.409073,200.651093 128.964630,199.689972 
	C126.906189,197.609512 124.961937,195.850815 123.028633,193.686752 
	C124.890228,188.631653 123.103928,184.585342 121.043602,180.522552 
	C120.164192,178.788406 119.645569,176.871338 118.963005,175.037384 
	C120.747856,175.037384 122.532707,175.037384 124.357689,175.037384 
	C127.019859,181.231628 129.383926,182.479309 134.732483,180.133057 
z"/>
<path fill="#985A3A" opacity="1.000000" stroke="none" 
	d="
M79.006973,161.948532 
	C81.424217,161.341385 83.841454,160.734238 86.828796,160.409119 
	C90.244423,162.893066 93.170616,163.468781 96.618210,161.840607 
	C98.172165,161.106766 100.150795,161.272156 101.936745,161.029541 
	C103.334938,161.063019 104.733139,161.096497 106.713081,161.435532 
	C107.369453,166.210373 111.921829,166.368057 113.666565,168.848969 
	C111.494591,168.975464 109.757736,169.063217 107.558090,169.113922 
	C102.072823,168.703812 97.050354,168.330765 91.558365,167.949493 
	C85.690628,167.887466 80.292397,167.833618 74.980797,167.457718 
	C76.380615,165.406616 77.693794,163.677582 79.006973,161.948532 
z"/>
<path fill="#944622" opacity="1.000000" stroke="none" 
	d="
M101.993881,160.678436 
	C100.150795,161.272156 98.172165,161.106766 96.618210,161.840607 
	C93.170616,163.468781 90.244423,162.893066 87.205521,160.402191 
	C87.989967,159.270142 88.967789,158.427017 90.362076,157.321671 
	C93.774292,158.529037 95.529572,157.195007 97.440262,153.967148 
	C93.626312,153.967148 90.568985,153.967148 87.511665,153.967148 
	C86.631607,153.978775 85.751556,153.990402 84.548737,154.023895 
	C83.559441,151.097458 85.181877,150.378815 87.877151,150.286499 
	C91.854408,149.921524 95.823914,153.494324 99.481125,149.404465 
	C99.782715,149.067200 101.510757,150.005478 102.706711,150.657852 
	C102.463432,152.058365 102.089455,153.152100 101.847763,154.461700 
	C102.003700,156.560806 102.027351,158.444061 101.993881,160.678436 
z"/>
<path fill="#924420" opacity="1.000000" stroke="none" 
	d="
M118.804092,174.762939 
	C119.645569,176.871338 120.164192,178.788406 121.043602,180.522552 
	C123.103928,184.585342 124.890228,188.631653 122.873260,193.966797 
	C121.233498,196.192245 119.760056,197.732330 118.213806,198.841385 
	C118.990311,192.823273 120.450737,187.103226 117.873611,181.727188 
	C116.504677,178.871521 114.006905,176.556961 112.013489,173.676819 
	C112.012428,172.927689 112.016571,172.499878 111.956085,172.040619 
	C111.891449,172.009155 111.837883,171.875748 112.232956,171.940247 
	C113.427078,172.049133 114.226128,172.093552 115.025177,172.137955 
	C116.231842,172.921463 117.438507,173.704971 118.804092,174.762939 
z"/>
<path fill="#823B1A" opacity="1.000000" stroke="none" 
	d="
M114.101677,168.810226 
	C111.921829,166.368057 107.369453,166.210373 107.132614,161.428192 
	C108.649216,159.989090 110.328049,158.862900 111.931847,157.787033 
	C114.502953,161.606659 116.730553,164.915955 118.559837,168.603119 
	C116.808243,168.924057 115.454964,168.867142 114.101677,168.810226 
z"/>
<path fill="#BB8A58" opacity="1.000000" stroke="none" 
	d="
M113.666565,168.848969 
	C115.454964,168.867142 116.808243,168.924057 118.568466,168.975388 
	C121.919388,168.969803 124.863358,168.969803 127.807335,168.969803 
	C127.847740,169.262726 127.888153,169.555649 127.928558,169.848572 
	C123.902313,170.569199 119.876076,171.289825 115.437500,172.074203 
	C114.226128,172.093552 113.427078,172.049133 111.975624,171.728577 
	C110.202942,171.288132 109.082672,171.123840 107.974945,170.657516 
	C107.998634,169.953964 108.009758,169.552475 108.020889,169.150970 
	C109.757736,169.063217 111.494591,168.975464 113.666565,168.848969 
z"/>
<path fill="#000000" opacity="1.000000" stroke="none" 
	d="
M37.456879,197.232574 
	C34.698124,194.424881 32.358475,191.560394 29.937265,188.350220 
	C27.390034,182.189835 26.187109,176.297714 32.551746,172.358658 
	C35.242249,170.693542 38.956726,170.682968 42.786324,170.180939 
	C44.555569,171.014709 45.744263,171.587891 47.117661,172.491196 
	C47.059189,175.472153 46.968254,178.147919 46.538830,180.768234 
	C45.810516,185.212296 44.868668,189.621368 44.016571,194.045151 
	C41.969707,195.088684 39.922848,196.132217 37.456879,197.232574 
z"/>
<path fill="#BB8A58" opacity="1.000000" stroke="none" 
	d="
M46.932957,172.161072 
	C45.744263,171.587891 44.555569,171.014709 43.227890,170.135529 
	C39.992455,168.855942 36.896004,167.882385 33.361721,166.872131 
	C35.463974,161.677734 39.702934,164.109085 43.295479,164.790359 
	C45.109634,165.134384 46.681076,166.758331 48.702152,167.894577 
	C53.422356,168.346176 57.804955,168.681335 62.182316,169.074738 
	C66.245361,169.439896 70.302803,169.867249 74.779495,170.607605 
	C75.137077,171.243912 75.107925,171.542770 74.683121,171.912598 
	C71.497528,172.322189 68.737648,172.663742 65.865097,172.793732 
	C65.555389,172.319046 65.304787,172.125122 64.818054,171.761719 
	C64.058029,171.444901 63.480553,171.366776 62.516525,171.209335 
	C59.084892,170.738571 56.039822,170.347092 52.658783,170.081604 
	C50.526196,170.858749 48.729572,171.509903 46.932957,172.161072 
z"/>
<path fill="#823B1A" opacity="1.000000" stroke="none" 
	d="
M78.940239,161.601105 
	C77.693794,163.677582 76.380615,165.406616 74.612350,167.446609 
	C72.429985,167.440369 70.702705,167.123169 68.975426,166.805969 
	C70.304100,164.754059 71.417961,162.512924 73.016182,160.698410 
	C74.986069,158.461945 77.208092,158.061752 78.940239,161.601105 
z"/>
<path fill="#BB8A58" opacity="1.000000" stroke="none" 
	d="
M68.578995,166.859955 
	C70.702705,167.123169 72.429985,167.440369 74.525711,167.768661 
	C80.292397,167.833618 85.690628,167.887466 91.252708,168.234528 
	C87.278221,168.702347 83.139877,168.876953 79.001541,169.051559 
	C74.508789,168.513702 70.016037,167.975830 65.251617,167.155670 
	C66.047485,166.886902 67.115021,166.900421 68.578995,166.859955 
z"/>
<path fill="#ECBA6F" opacity="1.000000" stroke="none" 
	d="
M87.624245,154.284409 
	C90.568985,153.967148 93.626312,153.967148 97.440262,153.967148 
	C95.529572,157.195007 93.774292,158.529037 90.437172,156.996979 
	C89.309486,156.156906 88.523155,155.379288 87.624245,154.284409 
z"/>
<path fill="#A24E27" opacity="1.000000" stroke="none" 
	d="
M65.977760,173.005295 
	C68.737648,172.663742 71.497528,172.322189 74.985718,171.987411 
	C77.437141,172.155731 79.160248,172.317291 80.756744,172.771942 
	C74.101967,175.566833 71.657326,182.255707 74.303535,188.939240 
	C75.170998,191.130188 75.013390,193.941483 74.619225,196.353851 
	C74.263977,198.527954 74.027733,199.947189 76.776047,200.365479 
	C76.874428,201.123642 76.950005,201.554489 76.776657,202.245361 
	C76.116058,204.136475 75.704384,205.767532 75.148483,207.687057 
	C73.463936,210.273926 71.923630,212.572342 69.947968,214.957672 
	C69.222504,215.103256 68.932404,215.161911 68.357727,215.149597 
	C67.352310,214.447052 66.631470,213.815475 65.886559,212.905106 
	C65.608734,212.282806 65.354980,211.939301 65.101227,211.595795 
	C64.723267,211.976807 64.345306,212.357819 63.632553,212.826019 
	C63.220432,213.902710 62.762531,215.090515 63.151497,215.837097 
	C63.797577,217.077240 64.987625,218.033981 65.971573,219.482391 
	C67.434303,220.851288 68.874023,221.847870 70.605591,222.967041 
	C71.894386,223.306351 72.891327,223.523071 73.981567,224.104370 
	C84.116745,231.574493 101.239357,231.607285 110.348259,226.559570 
	C113.071663,225.050385 115.497452,223.004135 118.198868,220.887695 
	C121.054688,217.678513 123.894234,214.886917 126.412064,211.830292 
	C127.157211,210.925674 126.995438,209.274002 127.249268,207.964676 
	C125.941757,208.009796 124.634247,208.054932 123.015884,208.076660 
	C122.497650,208.039978 122.290268,208.026672 122.096695,207.601608 
	C120.721939,201.194290 125.781937,201.458801 129.078827,200.011749 
	C129.409073,200.651093 129.720306,201.301193 130.074615,201.926910 
	C130.468826,202.623093 130.902237,203.297073 131.655731,204.398102 
	C132.126831,206.583908 132.265106,208.352020 132.393768,210.120850 
	C132.576096,212.627808 132.780411,215.113586 136.192566,215.205429 
	C135.363205,216.767471 134.533844,218.329529 133.327911,219.636932 
	C131.812866,218.324783 130.674393,217.267273 129.535919,216.209778 
	C128.552307,217.372040 127.513641,218.493057 126.602043,219.709305 
	C125.837112,220.729874 125.446449,222.143539 124.502785,222.900024 
	C115.879311,229.812881 106.039902,233.712128 94.951233,233.937286 
	C85.098373,234.137329 75.637161,232.499573 66.975266,226.444534 
	C66.745377,228.152649 66.877411,229.547897 67.414406,230.764389 
	C67.966415,232.014893 68.913719,233.090927 69.688042,234.243301 
	C69.688042,234.243301 69.525444,234.210739 69.100914,234.111313 
	C68.097893,234.015640 67.519409,234.019409 66.940918,234.023178 
	C66.940918,234.023178 66.995361,233.994675 66.816643,233.776581 
	C66.061073,233.383621 65.484230,233.208740 64.907379,233.033875 
	C63.327370,231.196930 61.709248,229.391190 60.175087,227.516739 
	C56.741417,223.321411 53.349525,219.091888 50.088074,214.280945 
	C50.902817,213.503845 51.570107,213.322083 52.284897,213.459503 
	C53.970848,214.220459 56.373352,215.571518 57.116169,214.947357 
	C60.418964,212.172150 63.246487,208.831299 66.035698,205.914703 
	C62.967258,202.379395 60.421600,199.446411 57.909622,196.085907 
	C58.629124,191.146347 59.905075,186.625931 59.840961,182.124588 
	C59.771683,177.261124 60.576611,173.809525 65.977760,173.005295 
z"/>
<path fill="#823B1A" opacity="1.000000" stroke="none" 
	d="
M69.938042,234.452240 
	C68.913719,233.090927 67.966415,232.014893 67.414406,230.764389 
	C66.877411,229.547897 66.745377,228.152649 66.975266,226.444534 
	C75.637161,232.499573 85.098373,234.137329 94.951233,233.937286 
	C106.039902,233.712128 115.879311,229.812881 124.502785,222.900024 
	C125.446449,222.143539 125.837112,220.729874 126.602043,219.709305 
	C127.513641,218.493057 128.552307,217.372040 129.535919,216.209778 
	C130.674393,217.267273 131.812866,218.324783 133.017624,219.746201 
	C130.592377,222.998596 128.100861,225.887070 125.003006,228.940781 
	C123.271614,229.732040 122.146561,230.358078 120.691055,231.142944 
	C112.299812,234.781799 103.996696,237.255478 95.109047,236.987335 
	C88.027901,236.773682 80.951752,236.394135 73.873390,236.088242 
	C73.873390,236.088242 73.935905,236.047195 73.870293,235.932480 
	C73.498909,235.581650 73.232529,235.640411 73.005524,235.994049 
	C72.066360,235.549759 71.127205,235.105469 69.938042,234.452240 
z"/>
<path fill="#713C1D" opacity="1.000000" stroke="none" 
	d="
M136.513687,215.034332 
	C132.780411,215.113586 132.576096,212.627808 132.393768,210.120850 
	C132.265106,208.352020 132.126831,206.583908 131.967453,204.418793 
	C133.252945,204.089737 134.573776,204.078613 135.872589,204.242188 
	C138.237091,204.539978 140.698334,205.561310 142.922028,205.167435 
	C147.228821,204.404633 151.398819,202.869537 155.877380,201.912918 
	C152.260803,210.298325 144.418945,212.384888 136.513687,215.034332 
z"/>
<path fill="#924420" opacity="1.000000" stroke="none" 
	d="
M158.086670,192.580627 
	C157.450165,193.192841 156.680481,193.224319 156.237000,193.620743 
	C148.206482,200.798965 141.212250,200.845947 133.516922,193.360291 
	C141.256546,193.540985 147.941040,191.763550 154.020767,187.460190 
	C155.410019,186.476807 157.369125,186.298492 159.065979,185.749664 
	C158.745773,187.889709 158.425552,190.029739 158.086670,192.580627 
z"/>
<path fill="#B45C2B" opacity="1.000000" stroke="none" 
	d="
M159.059723,185.643707 
	C157.369125,186.298492 155.410019,186.476807 154.020767,187.460190 
	C147.941040,191.763550 141.256546,193.540985 133.433502,193.023483 
	C129.996613,190.643158 129.734818,188.320969 133.557617,186.087418 
	C136.066544,186.066437 138.201233,186.066711 140.710480,186.090576 
	C140.798599,187.491394 140.512177,188.868637 140.175430,190.487747 
	C146.878860,191.645096 149.290009,185.915131 153.511292,183.589386 
	C155.339615,182.582047 157.290665,181.797546 159.601837,180.879242 
	C160.003235,181.648071 159.988754,182.449478 159.723846,183.807800 
	C159.318649,184.686523 159.163879,185.008331 159.009109,185.330154 
	C159.009109,185.330154 159.053482,185.537750 159.059723,185.643707 
z"/>
<path fill="#713C1D" opacity="1.000000" stroke="none" 
	d="
M73.904579,236.311996 
	C80.951752,236.394135 88.027901,236.773682 95.109047,236.987335 
	C103.996696,237.255478 112.299812,234.781799 121.026825,231.142548 
	C122.141830,230.977341 122.590591,230.971344 123.039352,230.965363 
	C123.020363,231.420212 123.001358,231.875076 122.997604,232.671158 
	C119.804146,235.876892 114.205841,234.405106 111.954742,239.460297 
	C111.514938,239.821915 111.116951,239.806427 110.423409,239.745605 
	C108.233871,239.185974 106.317123,238.190262 104.451599,238.278412 
	C102.082169,238.390396 99.754295,239.381454 97.143555,240.064087 
	C96.878609,240.134689 96.709999,239.981796 96.695183,239.837067 
	C96.563904,239.475815 96.400589,239.431580 95.755386,239.475800 
	C93.882683,239.485504 92.445015,239.579010 91.007355,239.672516 
	C85.504639,238.921310 80.001923,238.170105 74.268524,237.197403 
	C74.037849,236.975906 73.935768,236.535751 73.904579,236.311996 
z"/>
<path fill="#A24E27" opacity="1.000000" stroke="none" 
	d="
M123.294991,230.858215 
	C122.590591,230.971344 122.141830,230.977341 121.357292,230.983734 
	C122.146561,230.358078 123.271614,229.732040 124.745255,229.160675 
	C124.579437,229.727249 124.065033,230.239166 123.294991,230.858215 
z"/>
<path fill="#924420" opacity="1.000000" stroke="none" 
	d="
M159.198517,185.143906 
	C159.163879,185.008331 159.318649,184.686523 159.686218,184.204529 
	C159.728653,184.348785 159.558289,184.653214 159.198517,185.143906 
z"/>
<path fill="#C07839" opacity="1.000000" stroke="none" 
	d="
M90.993668,239.929779 
	C92.445015,239.579010 93.882683,239.485504 95.832664,239.552444 
	C96.344986,239.712906 96.709999,239.981796 96.709999,239.981796 
	C96.709999,239.981796 96.878609,240.134689 96.934601,240.237885 
	C95.950409,241.811401 95.038544,244.386398 93.843674,244.525208 
	C91.246735,244.826874 89.091263,243.514282 90.993668,239.929779 
z"/>
<path fill="#B45C2B" opacity="1.000000" stroke="none" 
	d="
M52.237396,213.140320 
	C51.570107,213.322083 50.902817,213.503845 49.985161,213.947449 
	C49.734795,214.209320 49.292290,214.059708 49.076897,213.694748 
	C48.250889,212.550385 47.640266,211.770981 47.029648,210.991562 
	C47.029652,210.991562 47.007671,210.993622 46.985863,210.789062 
	C46.964054,210.584488 46.987911,210.192856 46.987915,210.192856 
	C47.123581,209.811813 47.259251,209.430771 47.196693,208.520523 
	C46.949821,207.243668 46.901165,206.496033 46.918934,205.459030 
	C47.633068,204.164703 48.280777,203.159729 49.246193,202.003998 
	C52.849503,199.213669 55.351463,199.899261 56.985798,204.003296 
	C56.587280,205.622131 56.337025,206.874985 56.058922,208.097809 
	C56.031075,208.067795 56.094090,208.015503 55.942230,208.147980 
	C55.933620,208.620514 56.076866,208.960587 56.193066,209.570587 
	C55.624310,210.245071 55.082600,210.649628 54.173241,211.082825 
	C53.221359,211.761765 52.637131,212.412064 52.110615,213.054413 
	C52.168331,213.046478 52.237396,213.140320 52.237396,213.140320 
z"/>
<path fill="#985A3A" opacity="1.000000" stroke="none" 
	d="
M46.852509,205.748383 
	C46.901165,206.496033 46.949821,207.243668 47.021378,208.361282 
	C46.878216,208.768951 46.712158,208.806641 46.294540,208.888977 
	C45.344463,206.562576 44.645950,204.191544 44.179146,201.371033 
	C44.410858,200.921555 44.799946,200.907333 44.836914,201.301544 
	C45.533424,203.046646 46.192966,204.397507 46.852509,205.748383 
z"/>
<path fill="#E8A857" opacity="1.000000" stroke="none" 
	d="
M47.038399,211.321625 
	C47.640266,211.770981 48.250889,212.550385 48.850388,213.637802 
	C48.241898,213.181122 47.644524,212.416412 47.038399,211.321625 
z"/>
<path fill="#823B1A" opacity="1.000000" stroke="none" 
	d="
M67.021057,234.314514 
	C67.519409,234.019409 68.097893,234.015640 69.110687,234.028976 
	C68.730400,234.232666 67.915802,234.419266 67.021057,234.314514 
z"/>
<path fill="#823B1A" opacity="1.000000" stroke="none" 
	d="
M65.070053,233.305573 
	C65.484230,233.208740 66.061073,233.383621 66.823013,233.806641 
	C66.416306,233.895630 65.824516,233.736450 65.070053,233.305573 
z"/>
<path fill="#713C1D" opacity="1.000000" stroke="none" 
	d="
M73.241402,236.050247 
	C73.232529,235.640411 73.498909,235.581650 73.883400,235.967499 
	C73.962120,236.117233 73.477280,236.106445 73.241402,236.050247 
z"/>
<path fill="#E8A857" opacity="1.000000" stroke="none" 
	d="
M46.869087,210.259064 
	C46.987911,210.192856 46.964054,210.584488 46.989609,210.778656 
	C46.704136,210.814713 46.615833,210.598862 46.869087,210.259064 
z"/>
<path fill="#713C1D" opacity="1.000000" stroke="none" 
	d="
M44.799950,200.907349 
	C44.799946,200.907333 44.410858,200.921555 44.222252,200.969162 
	C43.982727,198.932129 43.931812,196.847488 43.948734,194.403992 
	C44.868668,189.621368 45.810516,185.212296 46.538830,180.768234 
	C46.968254,178.147919 47.059189,175.472153 47.117653,172.491180 
	C48.729572,171.509903 50.526196,170.858749 52.658642,170.471924 
	C52.688202,174.196396 52.128128,177.657608 52.142761,181.116394 
	C52.159401,185.048935 52.689590,188.979294 52.721912,193.097610 
	C50.949642,195.188477 49.452007,197.092316 47.661171,199.093445 
	C46.511963,199.762939 45.655956,200.335144 44.799950,200.907349 
z"/>
<path fill="#ECBA6F" opacity="1.000000" stroke="none" 
	d="
M80.883362,172.478867 
	C79.160248,172.317291 77.437141,172.155731 75.411423,171.919357 
	C75.107925,171.542770 75.137077,171.243912 75.239151,170.729248 
	C76.292923,170.514572 77.303810,170.518631 79.053864,170.680847 
	C89.182816,170.879196 98.572609,170.919388 107.962395,170.959564 
	C109.082672,171.123840 110.202942,171.288132 111.580551,171.664093 
	C111.837883,171.875748 111.891449,172.009155 111.557526,171.987671 
	C110.156670,172.020996 109.089752,172.075821 107.634521,172.070801 
	C105.737320,172.261810 104.228424,172.512665 102.310928,172.760101 
	C99.475502,173.461212 97.081215,174.349899 94.607162,174.787064 
	C93.488052,174.984802 92.210365,174.285004 90.748581,173.687317 
	C87.289482,173.081100 84.086426,172.779984 80.883362,172.478867 
z"/>
<path fill="#9C7555" opacity="1.000000" stroke="none" 
	d="
M107.974945,170.657516 
	C98.572609,170.919388 89.182816,170.879196 79.436028,170.687500 
	C79.061752,170.288666 79.044479,170.041321 79.014374,169.422760 
	C83.139877,168.876953 87.278221,168.702347 91.722214,168.242737 
	C97.050354,168.330765 102.072823,168.703812 107.558090,169.113922 
	C108.009758,169.552475 107.998634,169.953964 107.974945,170.657516 
z"/>
<path fill="#BB8A58" opacity="1.000000" stroke="none" 
	d="
M50.981834,165.190521 
	C51.031738,165.077255 51.221329,165.062729 51.695621,165.048141 
	C51.694057,165.128479 51.407787,165.208862 50.981834,165.190521 
z"/>
<path fill="#E8A857" opacity="1.000000" stroke="none" 
	d="
M128.964630,199.689972 
	C125.781937,201.458801 120.721939,201.194290 121.794281,207.784225 
	C119.447037,207.427246 116.102707,206.835205 115.719124,205.433151 
	C115.244980,203.700073 117.229904,201.294250 118.176170,199.216431 
	C118.199997,199.253784 118.286613,199.272415 118.286606,199.272415 
	C119.760056,197.732330 121.233498,196.192245 122.862312,194.372131 
	C124.961937,195.850815 126.906189,197.609512 128.964630,199.689972 
z"/>
<path fill="#A24E27" opacity="1.000000" stroke="none" 
	d="
M108.022827,172.130630 
	C109.089752,172.075821 110.156670,172.020996 111.622154,172.019135 
	C112.016571,172.499878 112.012428,172.927689 112.075905,174.050476 
	C115.088860,182.193192 116.617393,189.539276 112.345772,197.183578 
	C110.656036,200.207443 110.034073,203.827988 108.598175,207.080322 
	C106.218971,206.065933 104.669296,205.971664 104.643158,209.039276 
	C104.043663,209.169907 103.806587,209.234116 103.243149,209.320587 
	C101.943954,210.889648 100.971123,212.436447 99.635063,213.990234 
	C96.010933,216.664948 92.736473,219.316345 89.494492,222.006866 
	C87.710335,223.487534 85.999786,225.467438 84.301834,222.018494 
	C88.834717,217.291367 93.103722,212.784714 97.711578,208.219696 
	C99.676598,205.781265 101.302757,203.401199 103.282974,200.967087 
	C109.161362,197.222275 110.464684,191.089645 111.761787,185.357422 
	C112.341743,182.794525 110.348633,179.641937 109.495529,176.765167 
	C109.034767,175.211380 108.515625,173.674911 108.022827,172.130630 
z"/>
<path fill="#944622" opacity="1.000000" stroke="none" 
	d="
M108.925949,207.176865 
	C110.034073,203.827988 110.656036,200.207443 112.345772,197.183578 
	C116.617393,189.539276 115.088860,182.193192 112.081116,174.371826 
	C114.006905,176.556961 116.504677,178.871521 117.873611,181.727188 
	C120.450737,187.103226 118.990311,192.823273 118.213806,198.841385 
	C118.286613,199.272415 118.199997,199.253784 117.797791,199.179779 
	C116.686371,199.423630 115.619087,199.549088 115.327629,200.091446 
	C113.759781,203.008942 112.384750,206.030045 110.686317,208.905243 
	C109.928291,208.255692 109.427116,207.716278 108.925949,207.176865 
z"/>
<path fill="#823B1A" opacity="1.000000" stroke="none" 
	d="
M52.996552,192.910599 
	C52.689590,188.979294 52.159401,185.048935 52.142761,181.116394 
	C52.128128,177.657608 52.688202,174.196396 52.994610,170.345947 
	C56.039822,170.347092 59.084892,170.738571 62.579269,171.430359 
	C63.685925,171.820572 64.343269,171.910477 65.000618,172.000397 
	C65.304787,172.125122 65.555389,172.319046 65.865097,172.793732 
	C60.576611,173.809525 59.771683,177.261124 59.840961,182.124588 
	C59.905075,186.625931 58.629124,191.146347 57.621918,195.892502 
	C55.865868,195.054626 54.431210,193.982620 52.996552,192.910599 
z"/>
<path fill="#A24E27" opacity="1.000000" stroke="none" 
	d="
M64.818054,171.761719 
	C64.343269,171.910477 63.685925,171.820572 62.965832,171.509644 
	C63.480553,171.366776 64.058029,171.444901 64.818054,171.761719 
z"/>
<path fill="#B45C2B" opacity="1.000000" stroke="none" 
	d="
M84.037956,222.238968 
	C85.999786,225.467438 87.710335,223.487534 89.494492,222.006866 
	C92.736473,219.316345 96.010933,216.664948 99.938461,214.133377 
	C105.710350,218.375427 109.581421,225.587906 118.059586,221.203934 
	C115.497452,223.004135 113.071663,225.050385 110.348259,226.559570 
	C101.239357,231.607285 84.116745,231.574493 74.074539,223.805389 
	C75.396767,221.768860 76.719330,220.395889 78.379944,219.027069 
	C79.780502,219.346786 80.843002,219.662369 81.972595,220.303589 
	C82.705788,221.165817 83.371872,221.702393 84.037956,222.238968 
z"/>
<path fill="#ECBA6F" opacity="1.000000" stroke="none" 
	d="
M102.928925,201.021149 
	C101.302757,203.401199 99.676598,205.781265 97.424515,208.036087 
	C96.505074,207.570236 96.211563,207.229614 96.070488,206.589508 
	C97.682602,201.222519 92.575813,200.343811 90.475853,197.591614 
	C89.960831,196.916626 87.466431,196.771255 86.837173,197.376083 
	C85.665443,198.502380 85.195335,200.358612 84.433189,201.911011 
	C85.743912,202.075653 87.079094,202.135986 88.358086,202.435959 
	C89.509460,202.705963 91.164932,202.954681 91.556938,203.735504 
	C91.948273,204.514999 91.401718,206.413910 90.638542,206.989151 
	C89.061890,208.177597 87.067894,208.812332 85.031433,209.427261 
	C82.220062,206.781570 79.622818,204.383438 77.025574,201.985321 
	C76.950005,201.554489 76.874428,201.123642 77.024017,200.121094 
	C78.851967,197.721054 80.454758,195.892746 82.364105,193.928223 
	C84.730614,191.968246 86.790565,190.144470 89.181770,188.500244 
	C91.375679,190.074951 93.238327,191.470093 95.181381,193.188568 
	C97.494118,195.694672 99.726456,197.877441 102.073936,200.264297 
	C102.372261,200.737534 102.618881,200.921799 102.928925,201.021149 
z"/>
<path fill="#B45C2B" opacity="1.000000" stroke="none" 
	d="
M82.057556,194.064423 
	C80.454758,195.892746 78.851967,197.721054 77.001205,199.793762 
	C74.027733,199.947189 74.263977,198.527954 74.619225,196.353851 
	C75.013390,193.941483 75.170998,191.130188 74.303535,188.939240 
	C71.657326,182.255707 74.101967,175.566833 80.756744,172.771942 
	C84.086426,172.779984 87.289482,173.081100 90.349045,173.692047 
	C87.604141,175.447311 83.746651,176.270325 82.658783,178.465744 
	C80.281067,183.264191 79.125076,188.755722 82.057556,194.064423 
z"/>
<path fill="#E8A857" opacity="1.000000" stroke="none" 
	d="
M118.198868,220.887695 
	C109.581421,225.587906 105.710350,218.375427 100.301682,214.126389 
	C100.971123,212.436447 101.943954,210.889648 103.397156,209.619385 
	C106.716743,213.042862 109.555962,216.189819 113.038017,220.049286 
	C114.487740,217.577499 115.240410,216.294205 115.978439,215.024734 
	C115.963806,215.038559 115.939041,215.070404 116.296036,215.176697 
	C118.877594,212.888657 121.102165,210.494354 123.326736,208.100052 
	C124.634247,208.054932 125.941757,208.009796 127.249268,207.964676 
	C126.995438,209.274002 127.157211,210.925674 126.412064,211.830292 
	C123.894234,214.886917 121.054688,217.678513 118.198868,220.887695 
z"/>
<path fill="#E8A857" opacity="1.000000" stroke="none" 
	d="
M52.721909,193.097610 
	C54.431210,193.982620 55.865868,195.054626 57.588234,196.320038 
	C60.421600,199.446411 62.967258,202.379395 66.035698,205.914703 
	C63.246487,208.831299 60.418964,212.172150 57.116169,214.947357 
	C56.373352,215.571518 53.970848,214.220459 52.284897,213.459503 
	C52.237396,213.140320 52.168331,213.046478 52.420784,212.954590 
	C53.295792,212.259872 53.918346,211.657028 54.540894,211.054184 
	C55.082600,210.649628 55.624310,210.245071 56.242188,209.239456 
	C56.243607,208.430771 56.168850,208.223129 56.094090,208.015503 
	C56.094090,208.015503 56.031075,208.067795 56.404430,208.173157 
	C60.556629,207.012405 60.444942,205.447632 57.134056,203.637283 
	C55.351463,199.899261 52.849503,199.213669 49.150124,201.683411 
	C48.475689,200.674454 48.215031,199.835297 47.954376,198.996155 
	C49.452007,197.092316 50.949642,195.188477 52.721909,193.097610 
z"/>
<path fill="#ECBA6F" opacity="1.000000" stroke="none" 
	d="
M78.041893,219.022919 
	C76.719330,220.395889 75.396767,221.768860 73.981239,223.440826 
	C72.891327,223.523071 71.894386,223.306351 70.420311,222.696808 
	C68.611649,221.239334 67.280106,220.174698 65.948563,219.110077 
	C64.987625,218.033981 63.797577,217.077240 63.151497,215.837097 
	C62.762531,215.090515 63.220432,213.902710 63.948502,212.932404 
	C65.036362,213.029053 65.473495,213.106491 65.910629,213.183929 
	C66.631470,213.815475 67.352310,214.447052 68.549248,215.435272 
	C70.999184,217.536346 73.049355,219.781433 74.020706,215.016571 
	C74.008926,215.004700 74.038826,215.029709 74.393799,215.142639 
	C75.991524,214.245285 77.096840,212.892090 78.516464,212.323059 
	C79.882599,211.775452 81.573814,212.038834 83.075867,212.294769 
	C81.366989,214.770065 79.704437,216.896500 78.041893,219.022919 
z"/>
<path fill="#924420" opacity="1.000000" stroke="none" 
	d="
M123.015884,208.076660 
	C121.102165,210.494354 118.877594,212.888657 116.239822,214.844315 
	C114.198799,212.608902 112.570984,210.812149 110.943169,209.015396 
	C112.384750,206.030045 113.759781,203.008942 115.327629,200.091446 
	C115.619087,199.549088 116.686371,199.423630 117.773972,199.142426 
	C117.229904,201.294250 115.244980,203.700073 115.719124,205.433151 
	C116.102707,206.835205 119.447037,207.427246 121.780464,208.195969 
	C122.290268,208.026672 122.497650,208.039978 123.015884,208.076660 
z"/>
<path fill="#B45C2B" opacity="1.000000" stroke="none" 
	d="
M83.122192,211.945892 
	C81.573814,212.038834 79.882599,211.775452 78.516464,212.323059 
	C77.096840,212.892090 75.991524,214.245285 74.385269,214.785370 
	C75.131584,212.924683 76.377052,211.619781 77.320274,210.124268 
	C78.840858,207.713303 78.035492,206.771469 75.292709,207.398605 
	C75.704384,205.767532 76.116058,204.136475 76.776657,202.245361 
	C79.622818,204.383438 82.220062,206.781570 84.939735,209.763535 
	C84.415512,210.880219 83.768852,211.413055 83.122192,211.945892 
z"/>
<path fill="#E8A857" opacity="1.000000" stroke="none" 
	d="
M75.148483,207.687057 
	C78.035492,206.771469 78.840858,207.713303 77.320274,210.124268 
	C76.377052,211.619781 75.131584,212.924683 74.030304,214.672424 
	C74.038826,215.029709 74.008926,215.004700 73.654175,214.971954 
	C72.327393,214.916382 71.355354,214.893570 70.383324,214.870758 
	C71.923630,212.572342 73.463936,210.273926 75.148483,207.687057 
z"/>
<path fill="#B45C2B" opacity="1.000000" stroke="none" 
	d="
M69.947968,214.957672 
	C71.355354,214.893570 72.327393,214.916382 73.665955,214.983826 
	C73.049355,219.781433 70.999184,217.536346 68.833824,215.506226 
	C68.932404,215.161911 69.222504,215.103256 69.947968,214.957672 
z"/>
<path fill="#B45C2B" opacity="1.000000" stroke="none" 
	d="
M65.971573,219.482376 
	C67.280106,220.174698 68.611649,221.239334 70.128464,222.574219 
	C68.874023,221.847870 67.434303,220.851288 65.971573,219.482376 
z"/>
<path fill="#B45C2B" opacity="1.000000" stroke="none" 
	d="
M65.886559,212.905121 
	C65.473495,213.106491 65.036362,213.029053 64.283279,212.845230 
	C64.345306,212.357819 64.723267,211.976807 65.101227,211.595795 
	C65.354980,211.939301 65.608734,212.282806 65.886559,212.905121 
z"/>
<path fill="#9C7555" opacity="1.000000" stroke="none" 
	d="
M96.695183,239.837067 
	C96.709999,239.981796 96.344986,239.712906 96.267700,239.636261 
	C96.400589,239.431580 96.563904,239.475815 96.695183,239.837067 
z"/>
<path fill="#BB8A58" opacity="1.000000" stroke="none" 
	d="
M47.661171,199.093445 
	C48.215031,199.835297 48.475689,200.674454 48.832417,201.834167 
	C48.280777,203.159729 47.633068,204.164703 46.918938,205.459030 
	C46.192966,204.397507 45.533424,203.046646 44.836918,201.301559 
	C45.655956,200.335144 46.511963,199.762939 47.661171,199.093445 
z"/>
<path fill="#A24E27" opacity="1.000000" stroke="none" 
	d="
M56.985798,204.003296 
	C60.444942,205.447632 60.556629,207.012405 56.432278,208.203186 
	C56.337025,206.874985 56.587280,205.622131 56.985798,204.003296 
z"/>
<path fill="#A24E27" opacity="1.000000" stroke="none" 
	d="
M54.173241,211.082825 
	C53.918346,211.657028 53.295792,212.259872 52.363068,212.962524 
	C52.637131,212.412064 53.221359,211.761765 54.173241,211.082825 
z"/>
<path fill="#A24E27" opacity="1.000000" stroke="none" 
	d="
M55.942230,208.147980 
	C56.168850,208.223129 56.243607,208.430771 56.269234,208.969513 
	C56.076866,208.960587 55.933620,208.620514 55.942230,208.147980 
z"/>
<path fill="#C07839" opacity="1.000000" stroke="none" 
	d="
M82.364105,193.928223 
	C79.125076,188.755722 80.281067,183.264191 82.658783,178.465744 
	C83.746651,176.270325 87.604141,175.447311 90.605080,173.997131 
	C92.210365,174.285004 93.488052,174.984802 94.607162,174.787064 
	C97.081215,174.349899 99.475502,173.461212 102.553581,173.043854 
	C106.547874,176.629745 107.789864,180.508713 108.198875,185.303055 
	C108.742142,191.671021 103.362175,194.897583 101.958794,200.060211 
	C99.726456,197.877441 97.494118,195.694672 95.351326,192.899902 
	C99.569351,188.129654 99.711670,185.359650 97.245811,179.885803 
	C95.717499,176.493179 93.351921,176.808517 92.072983,178.845215 
	C90.346764,181.594254 89.865822,185.125244 88.850517,188.320694 
	C86.790565,190.144470 84.730614,191.968246 82.364105,193.928223 
z"/>
<path fill="#B45C2B" opacity="1.000000" stroke="none" 
	d="
M102.073936,200.264297 
	C103.362175,194.897583 108.742142,191.671021 108.198875,185.303055 
	C107.789864,180.508713 106.547874,176.629745 102.962189,173.047256 
	C104.228424,172.512665 105.737320,172.261810 107.634521,172.070801 
	C108.515625,173.674911 109.034767,175.211380 109.495529,176.765167 
	C110.348633,179.641937 112.341743,182.794525 111.761787,185.357422 
	C110.464684,191.089645 109.161362,197.222275 103.282974,200.967087 
	C102.618881,200.921799 102.372261,200.737534 102.073936,200.264297 
z"/>
<path fill="#E8A857" opacity="1.000000" stroke="none" 
	d="
M95.918045,206.888977 
	C96.211563,207.229614 96.505074,207.570236 97.085648,208.094452 
	C93.103722,212.784714 88.834717,217.291367 84.301834,222.018494 
	C83.371872,221.702393 82.705788,221.165817 82.278282,220.155670 
	C86.983925,215.417740 91.450989,211.153351 95.918045,206.888977 
z"/>
<path fill="#E8A857" opacity="1.000000" stroke="none" 
	d="
M110.686317,208.905243 
	C112.570984,210.812149 114.198799,212.608902 115.882828,214.738037 
	C115.939041,215.070404 115.963806,215.038559 115.658066,215.130493 
	C113.932701,214.832184 112.302368,214.758331 111.138885,213.983490 
	C108.952065,212.527069 107.034874,210.665802 105.005569,208.972885 
	C104.669296,205.971664 106.218971,206.065933 108.598175,207.080322 
	C109.427116,207.716278 109.928291,208.255692 110.686317,208.905243 
z"/>
<path fill="#B45C2B" opacity="1.000000" stroke="none" 
	d="
M104.643158,209.039276 
	C107.034874,210.665802 108.952065,212.527069 111.138885,213.983490 
	C112.302368,214.758331 113.932701,214.832184 115.672699,215.116669 
	C115.240410,216.294205 114.487740,217.577499 113.038017,220.049286 
	C109.555962,216.189819 106.716743,213.042862 103.723511,209.597137 
	C103.806587,209.234116 104.043663,209.169907 104.643158,209.039276 
z"/>
<path fill="#C07839" opacity="1.000000" stroke="none" 
	d="
M96.070496,206.589508 
	C91.450989,211.153351 86.983925,215.417740 82.211182,219.830017 
	C80.843002,219.662369 79.780502,219.346786 78.379944,219.027069 
	C79.704437,216.896500 81.366989,214.770065 83.075867,212.294769 
	C83.768852,211.413055 84.415512,210.880219 85.153870,210.011108 
	C87.067894,208.812332 89.061890,208.177597 90.638542,206.989151 
	C91.401718,206.413910 91.948273,204.514999 91.556938,203.735504 
	C91.164932,202.954681 89.509460,202.705963 88.358086,202.435959 
	C87.079094,202.135986 85.743912,202.075653 84.433189,201.911011 
	C85.195335,200.358612 85.665443,198.502380 86.837173,197.376083 
	C87.466431,196.771255 89.960831,196.916626 90.475853,197.591614 
	C92.575813,200.343811 97.682602,201.222519 96.070496,206.589508 
z"/>
<path fill="#BB8A58" opacity="1.000000" stroke="none" 
	d="
M89.181770,188.500244 
	C89.865822,185.125244 90.346764,181.594254 92.072983,178.845215 
	C93.351921,176.808517 95.717499,176.493179 97.245811,179.885803 
	C99.711670,185.359650 99.569351,188.129654 95.270920,192.576584 
	C93.238327,191.470093 91.375679,190.074951 89.181770,188.500244 
z"/>
</svg>